{
  "accessors": [
    {
      "bufferView": 2,
      "componentType": 5126,
      "count": 9868,
      "max": [
        1.3150554895401,
        1.74359130859375,
        4.80115270614624
      ],
      "min": [
        -1.5190938711166382,
        -1.4108704328536987,
        0.004480727948248386
      ],
      "type": "VEC3"
    },
    {
      "bufferView": 2,
      "byteOffset": 118416,
      "componentType": 5126,
      "count": 9868,
      "max": [
        0.999902606010437,
        0.9999642968177795,
        0.9998705983161926
      ],
      "min": [
        -0.9999738931655884,
        -0.9998830556869507,
        -0.9999045133590698
      ],
      "type": "VEC3"
    },
    {
      "bufferView": 3,
      "componentType": 5126,
      "count": 9868,
      "max": [
        0.9998674392700195,
        0.9955450892448425,
        0.9999800324440002,
        1.0
      ],
      "min": [
        -0.9999589920043945,
        -0.999738335609436,
        -0.9996767044067383,
        -1.0
      ],
      "type": "VEC4"
    },
    {
      "bufferView": 1,
      "componentType": 5126,
      "count": 9868,
      "max": [
        0.9890528917312622,
        0.9948435425758362
      ],
      "min": [
        0.005156517028808594,
        0.005156517028808594
      ],
      "type": "VEC2"
    },
    {
      "bufferView": 1,
      "byteOffset": 78944,
      "componentType": 5126,
      "count": 9868,
      "max": [
        0.9890528917312622,
        0.9948435425758362
      ],
      "min": [
        0.005156517028808594,
        0.005156517028808594
      ],
      "type": "VEC2"
    },
    {
      "bufferView": 1,
      "byteOffset": 157888,
      "componentType": 5126,
      "count": 9868,
      "max": [
        0.9890528917312622,
        0.9948435425758362
      ],
      "min": [
        0.005156517028808594,
        0.005156517028808594
      ],
      "type": "VEC2"
    },
    {
      "bufferView": 0,
      "componentType": 5125,
      "count": 41976,
      "type": "SCALAR"
    },
    {
      "bufferView": 2,
      "byteOffset": 236832,
      "componentType": 5126,
      "count": 8516,
      "max": [
        9.468396186828613,
        1.74359130859375,
        4.80115270614624
      ],
      "min": [
        6.634247303009033,
        -1.4108704328536987,
        0.004480727948248386
      ],
      "type": "VEC3"
    },
    {
      "bufferView": 2,
      "byteOffset": 339024,
      "componentType": 5126,
      "count": 8516,
      "max": [
        0.9999738931655884,
        0.9999642968177795,
        0.9998706579208374
      ],
      "min": [
        -0.9999026656150818,
        -0.9998830556869507,
        -0.9999045133590698
      ],
      "type": "VEC3"
    },
    {
      "bufferView": 3,
      "byteOffset": 157888,
      "componentType": 5126,
      "count": 8516,
      "max": [
        0.9999590516090393,
        0.9955449104309082,
        0.999980092048645,
        1.0
      ],
      "min": [
        -0.9998674392700195,
        -0.999738335609436,
        -0.9996765851974487,
        -1.0
      ],
      "type": "VEC4"
    },
    {
      "bufferView": 1,
      "byteOffset": 236832,
      "componentType": 5126,
      "count": 8516,
      "max": [
        0.9890528917312622,
        0.9948435425758362
      ],
      "min": [
        0.005156517028808594,
        0.005156517028808594
      ],
      "type": "VEC2"
    },
    {
      "bufferView": 1,
      "byteOffset": 304960,
      "componentType": 5126,
      "count": 8516,
      "max": [
        0.9890528917312622,
        0.9948435425758362
      ],
      "min": [
        0.005156517028808594,
        0.005156517028808594
      ],
      "type": "VEC2"
    },
    {
      "bufferView": 1,
      "byteOffset": 373088,
      "componentType": 5126,
      "count": 8516,
      "max": [
        0.9890528917312622,
        0.9948435425758362
      ],
      "min": [
        0.005156517028808594,
        0.005156517028808594
      ],
      "type": "VEC2"
    },
    {
      "bufferView": 0,
      "byteOffset": 167904,
      "componentType": 5125,
      "count": 41976,
      "type": "SCALAR"
    }
  ],
  "asset": {
    "extras": {
      "author": "ule71 (https://sketchfab.com/ule71)",
      "license": "CC-BY-4.0 (http://creativecommons.org/licenses/by/4.0/)",
      "source": "https://sketchfab.com/3d-models/worn-boxing-gloves-a7c44fe1e8aa4fbab100cd88415c600b",
      "title": "Worn boxing gloves"
    },
    "generator": "Sketchfab-15.87.0",
    "version": "2.0"
  },
  "bufferViews": [
    {
      "buffer": 0,
      "byteLength": 335808,
      "name": "floatBufferViews",
      "target": 34963
    },
    {
      "buffer": 0,
      "byteLength": 441216,
      "byteOffset": 335808,
      "byteStride": 8,
      "name": "floatBufferViews",
      "target": 34962
    },
    {
      "buffer": 0,
      "byteLength": 441216,
      "byteOffset": 777024,
      "byteStride": 12,
      "name": "floatBufferViews",
      "target": 34962
    },
    {
      "buffer": 0,
      "byteLength": 294144,
      "byteOffset": 1218240,
      "byteStride": 16,
      "name": "floatBufferViews",
      "target": 34962
    }
  ],
  "buffers": [
    {
      "byteLength": 1512384,
      "uri": "scene.bin"
    }
  ],
  "images": [
    {
      "uri": "textures/manche_baseColor.png"
    },
    {
      "uri": "textures/manche_metallicRoughness.png"
    },
    {
      "uri": "textures/manche_normal.png"
    }
  ],
  "materials": [
    {
      "doubleSided": true,
      "name": "manche",
      "normalTexture": {
        "index": 2
      },
      "pbrMetallicRoughness": {
        "baseColorTexture": {
          "index": 0
        },
        "metallicFactor": 0.0,
        "metallicRoughnessTexture": {
          "index": 1
        },
        "roughnessFactor": 0.6567639063280954
      }
    }
  ],
  "meshes": [
    {
      "name": "manche_manche_0",
      "primitives": [
        {
          "attributes": {
            "NORMAL": 1,
            "POSITION": 0,
            "TANGENT": 2,
            "TEXCOORD_0": 3,
            "TEXCOORD_1": 4,
            "TEXCOORD_2": 5
          },
          "indices": 6,
          "material": 0,
          "mode": 4
        }
      ]
    },
    {
      "name": "manche.001_manche_0",
      "primitives": [
        {
          "attributes": {
            "NORMAL": 8,
            "POSITION": 7,
            "TANGENT": 9,
            "TEXCOORD_0": 10,
            "TEXCOORD_1": 11,
            "TEXCOORD_2": 12
          },
          "indices": 13,
          "material": 0,
          "mode": 4
        }
      ]
    }
  ],
  "nodes": [
    {
      "children": [
        1
      ],
      "matrix": [
        -1.0,
        -1.60812262295773e-16,
        2.8327693431939985e-16,
        0.0,
        2.832769343193999e-16,
        -6.123234262925839e-17,
        1.0,
        0.0,
        -1.6081226229577292e-16,
        1.0,
        6.123234262925839e-17,
        0.0,
        0.0,
        0.0,
        0.0,
        1.0
      ],
      "name": "Sketchfab_model"
    },
    {
      "children": [
        2
      ],
      "matrix": [
        0.009999999776482582,
        0.0,
        0.0,
        0.0,
        0.0,
        0.0,
        0.009999999776482582,
        0.0,
        0.0,
        -0.009999999776482582,
        0.0,
        0.0,
        0.0,
        0.0,
        0.0,
        1.0
      ],
      "name": "left_glove.fbx"
    },
    {
      "children": [
        3,
        5
      ],
      "name": "RootNode"
    },
    {
      "children": [
        4
      ],
      "matrix": [
        100.0,
        0.0,
        0.0,
        0.0,
        0.0,
        17.361689874414136,
        -98.4813422758987,
        0.0,
        0.0,
        98.4813422758987,
        17.361689874414136,
        0.0,
        0.0,
        -5.761390209197998,
        0.0,
        1.0
      ],
      "name": "manche"
    },
    {
      "mesh": 0,
      "name": "manche_manche_0"
    },
    {
      "children": [
        6
      ],
      "matrix": [
        100.0,
        0.0,
        0.0,
        0.0,
        0.0,
        17.361689874414136,
        -98.4813422758987,
        0.0,
        0.0,
        98.4813422758987,
        17.361689874414136,
        0.0,
        -1159.86474609375,
        -5.761390209197998,
        0.0,
        1.0
      ],
      "name": "manche.001"
    },
    {
      "mesh": 1,
      "name": "manche.001_manche_0"
    }
  ],
  "samplers": [
    {
      "magFilter": 9729,
      "minFilter": 9987,
      "wrapS": 10497,
      "wrapT": 10497
    }
  ],
  "scene": 0,
  "scenes": [
    {
      "name": "Sketchfab_Scene",
      "nodes": [
        0
      ]
    }
  ],
  "textures": [
    {
      "sampler": 0,
      "source": 0
    },
    {
      "sampler": 0,
      "source": 1
    },
    {
      "sampler": 0,
      "source": 2
    }
  ]
}
